<svg width="258" height="76" viewBox="0 0 258 76" fill="none" xmlns="http://www.w3.org/2000/svg">
<g clip-path="url(#clip0_4166_1216)">
<path d="M70.7 38.6002C68.8 37.0002 66.2 36.2002 62.8 36.2002H57.3H54.7H51.5V65.7002H57.3V57.2002H61.4C63.4 57.2002 65.2 56.9002 66.7 56.3002C68.2 55.7002 69.4 54.8002 70.4 53.7002C71.4 52.6002 72.1 51.4002 72.6 50.0002C73.1 48.6002 73.3 47.1002 73.3 45.6002C73.4 42.5002 72.5 40.2002 70.7 38.6002ZM66.9 49.0002C66.5 50.0002 65.8 50.8002 64.9 51.5002C64 52.1002 62.8 52.4002 61.3 52.4002H57.3V41.2002H62.7C64.1 41.2002 65.3 41.5002 66.2 42.2002C67.1 42.9002 67.6 44.0002 67.6 45.6002C67.6 46.9002 67.4 48.0002 66.9 49.0002Z" fill="#1F074F"/>
<path d="M96.5996 59.6998C96.5996 58.7998 96.5996 58.0998 96.5996 57.4998V52.2998C96.5996 50.2998 96.2996 48.6998 95.7996 47.4998C95.2996 46.1998 94.4996 45.2998 93.5996 44.5998C92.5996 43.8998 91.4996 43.3998 90.1996 43.1998C88.8996 42.8998 87.4996 42.7998 85.9996 42.7998C84.7996 42.7998 83.4996 42.8998 82.2996 43.0998C81.0996 43.2998 79.9996 43.4998 78.9996 43.8998V48.4998H79.3996C80.0996 48.1998 80.8996 47.8998 81.9996 47.6998C83.0996 47.4998 84.1996 47.2998 85.2996 47.2998C86.5996 47.2998 87.5996 47.3998 88.4996 47.6998C89.2996 47.8998 89.9996 48.3998 90.3996 49.0998C90.7996 49.7998 91.0996 50.8998 91.0996 52.2998V52.6998C90.6996 52.5998 90.2996 52.4998 89.8996 52.3998C88.9996 52.1998 87.9996 52.0998 86.7996 52.0998C84.8996 52.0998 83.1996 52.3998 81.6996 52.8998C80.2996 53.3998 79.0996 54.1998 78.2996 55.1998C77.4996 56.1998 77.0996 57.5998 77.0996 59.1998C77.0996 61.6998 77.9996 63.4998 79.6996 64.6998C81.3996 65.7998 83.9996 66.3998 87.3996 66.3998C88.3996 66.3998 89.4996 66.2998 90.5996 66.1998C91.6996 66.0998 92.7996 65.8998 93.8996 65.5998C94.9996 65.2998 95.9996 64.9998 96.8996 64.6998L96.9996 64.3998C96.8996 63.8998 96.7996 63.2998 96.7996 62.3998C96.5996 61.3998 96.5996 60.5998 96.5996 59.6998ZM89.9996 61.9998C89.0996 62.1998 88.1996 62.1998 87.2996 62.1998C85.6996 62.1998 84.4996 61.9998 83.6996 61.4998C82.8996 60.9998 82.3996 60.1998 82.3996 59.0998C82.3996 57.8998 82.7996 57.0998 83.6996 56.5998C84.5996 56.0998 85.8996 55.8998 87.6996 55.8998C88.4996 55.8998 89.2996 55.9998 90.1996 56.0998C90.4996 56.1998 90.7996 56.1998 91.0996 56.2998V57.8998C91.0996 58.5998 91.0996 59.0998 91.0996 59.5998C91.0996 59.9998 91.1996 60.3998 91.1996 60.7998C91.1996 61.0998 91.2996 61.3998 91.3996 61.6998C90.7996 61.7998 90.3996 61.8998 89.9996 61.9998Z" fill="#1F074F"/>
<path d="M111.5 58.9998L106.3 43.2998H100.2V43.7998L108.7 66.1998L105.1 74.7998V75.1998H110.8L123 43.7998V43.2998H117.2L111.5 58.9998Z" fill="#1F074F"/>
<path d="M158.1 44.6998C157.1 43.9998 156.1 43.4998 154.9 43.1998C153.7 42.8998 152.4 42.7998 151.1 42.7998C149.7 42.7998 148.4 42.9998 147 43.2998C145.8 43.5998 144.7 43.8998 143.7 44.3998C142.9 43.8998 142 43.4998 141 43.2998C139.8 42.9998 138.6 42.7998 137.3 42.7998C136.2 42.7998 135 42.8998 133.8 43.0998C132.6 43.2998 131.4 43.4998 130.3 43.7998C129.2 44.0998 128.2 44.3998 127.4 44.6998L127.3 44.9998C127.4 45.4998 127.5 46.1998 127.5 46.9998C127.6 47.7998 127.6 48.6998 127.6 49.4998C127.6 50.2998 127.6 50.9998 127.6 51.5998V65.5998H133.3V50.7998C133.3 49.9998 133.3 49.1998 133.2 48.4998C133.2 48.2998 133.1 48.0998 133.1 47.9998C133.4 47.8998 133.8 47.7998 134.2 47.6998C135 47.4998 135.9 47.3998 136.7 47.3998C137.7 47.3998 138.5 47.5998 139.3 47.8998C140.1 48.1998 140.7 48.7998 141.1 49.5998C141.5 50.3998 141.8 51.4998 141.8 52.9998V65.6998H147.5V52.7998C147.5 50.8998 147.2 49.2998 146.7 48.0998C147.2 47.8998 147.7 47.7998 148.2 47.6998C148.9 47.4998 149.6 47.4998 150.3 47.4998C151.4 47.4998 152.3 47.6998 153.1 47.9998C153.9 48.2998 154.5 48.8998 154.9 49.6998C155.3 50.4998 155.5 51.5998 155.5 53.0998V65.7998H161.2V52.7998C161.2 50.6998 160.9 48.9998 160.4 47.7998C159.8 46.4998 159.1 45.4998 158.1 44.6998Z" fill="#1F074F"/>
<path d="M184.2 44.3998C182.6 43.3998 180.6 42.7998 178.1 42.7998C175.9 42.7998 173.9 43.2998 172.3 44.1998C170.7 45.0998 169.4 46.4998 168.5 48.1998C167.6 49.8998 167.1 51.9998 167.1 54.3998C167.1 56.3998 167.4 58.1998 168 59.5998C168.6 61.0998 169.5 62.2998 170.6 63.1998C171.7 64.0998 173.1 64.7998 174.7 65.2998C176.3 65.7998 178.1 65.9998 180.2 65.9998C181.7 65.9998 183 65.8998 184.1 65.6998C185.2 65.4998 186.2 65.1998 186.9 64.8998V60.2998H186.5C185.9 60.5998 185.1 60.8998 184.1 61.1998C183.1 61.3998 181.9 61.5998 180.6 61.5998C179.1 61.5998 177.8 61.3998 176.6 60.9998C175.5 60.5998 174.6 59.8998 173.9 58.9998C173.4 58.2998 173.1 57.3998 173 56.2998H188.4V54.8998C188.5 52.4998 188.2 50.4998 187.5 48.6998C186.9 46.7998 185.8 45.3998 184.2 44.3998ZM182.8 52.4998H173C173.1 51.4998 173.3 50.5998 173.6 49.8998C174.1 48.8998 174.7 48.1998 175.4 47.7998C176.2 47.3998 177.1 47.0998 178.1 47.0998C179.7 47.0998 180.9 47.4998 181.6 48.3998C182.4 49.2998 182.8 50.4998 182.8 52.1998V52.4998Z" fill="#1F074F"/>
<path d="M211.7 44.7998C210.7 44.0998 209.5 43.5998 208.3 43.2998C207 42.9998 205.7 42.7998 204.3 42.7998C203.2 42.7998 202 42.8998 200.8 43.0998C199.6 43.2998 198.4 43.4998 197.3 43.7998C196.2 44.0998 195.2 44.3998 194.4 44.6998L194.3 44.9998C194.4 45.4998 194.5 46.1998 194.5 46.9998C194.6 47.7998 194.6 48.6998 194.6 49.4998C194.6 50.2998 194.6 50.9998 194.6 51.5998V65.5998H200.3V50.7998C200.3 49.9998 200.3 49.1998 200.2 48.4998C200.2 48.2998 200.1 48.0998 200.1 47.9998C200.4 47.8998 200.8 47.7998 201.2 47.6998C202 47.4998 202.9 47.3998 203.7 47.3998C204.8 47.3998 205.8 47.5998 206.6 47.8998C207.4 48.1998 208 48.7998 208.5 49.5998C208.9 50.3998 209.2 51.4998 209.2 52.9998V65.6998H214.9V52.7998C214.9 50.7998 214.6 49.0998 214 47.7998C213.5 46.4998 212.8 45.4998 211.7 44.7998Z" fill="#1F074F"/>
<path d="M234 61.2C233.5 61.3 233 61.4 232.5 61.4C231.1 61.4 230.1 61.1 229.5 60.5C228.9 59.9 228.5 58.9 228.5 57.5V47.9H234.6V43.3H228.5V37.5H222.8V43.3H219.2V47.9H222.8V57.9C222.8 59.8 223.1 61.3 223.8 62.5C224.5 63.7 225.5 64.5 226.9 65.1C228.3 65.7 229.9 66 231.9 66C232.7 66 233.5 65.9 234.1 65.8C234.8 65.7 235.3 65.5 235.8 65.3V60.7H235.4C235 61 234.5 61.1 234 61.2Z" fill="#1F074F"/>
<path d="M254.2 53.5996C253.2 53.0996 252 52.7996 250.7 52.5996L248.8 52.2996C247.6 52.0996 246.6 51.7996 246 51.4996C245.4 51.1996 245.1 50.6996 245.1 49.9996C245.1 49.0996 245.5 48.3996 246.4 48.0996C247.3 47.6996 248.5 47.4996 250 47.4996C251 47.4996 252 47.5996 253 47.6996C254 47.8996 255 48.1996 256 48.5996H256.3V43.8996C255.4 43.5996 254.4 43.3996 253.4 43.2996C252.4 43.0996 251.3 43.0996 250.2 43.0996C247.7 43.0996 245.6 43.3996 244.1 44.0996C242.6 44.6996 241.4 45.5996 240.7 46.6996C240 47.7996 239.6 48.9996 239.6 50.2996C239.6 52.1996 240.2 53.5996 241.4 54.4996C242.6 55.3996 244.3 56.0996 246.4 56.4996L248.3 56.7996C249.6 56.9996 250.6 57.2996 251.2 57.5996C251.8 57.8996 252.1 58.3996 252.1 59.1996C252.1 59.7996 251.9 60.2996 251.6 60.5996C251.3 60.9996 250.9 61.1996 250.4 61.2996C249.9 61.3996 249.4 61.4996 248.9 61.5996C248.4 61.5996 247.8 61.5996 247.4 61.5996C246.1 61.5996 244.7 61.4996 243.4 61.0996C242.1 60.7996 240.9 60.3996 240 59.9996H239.7V64.8996C240.7 65.1996 241.9 65.4996 243.2 65.6996C244.5 65.8996 245.8 65.9996 247.1 65.9996C250.7 65.9996 253.3 65.3996 255.1 64.1996C256.9 62.9996 257.8 61.1996 257.8 58.7996C257.8 57.4996 257.5 56.3996 256.9 55.4996C256.1 54.7996 255.3 54.0996 254.2 53.5996Z" fill="#1F074F"/>
<path d="M81.0004 30.0004C83.3004 31.2004 86.2004 31.8004 89.7004 31.8004C91.1004 31.8004 92.3004 31.7004 93.4004 31.5004C94.5004 31.3004 95.4004 31.0004 96.2004 30.6004V25.4004H95.8004C95.1004 25.8004 94.2004 26.1004 93.2004 26.4004C92.2004 26.6004 91.1004 26.7004 90.0004 26.7004C87.8004 26.7004 86.0004 26.3004 84.5004 25.5004C83.0004 24.7004 81.9004 23.6004 81.1004 22.1004C80.3004 20.6004 80.0004 18.7004 80.0004 16.5004C80.0004 14.3004 80.4004 12.5004 81.1004 11.0004C81.9004 9.50039 83.0004 8.30039 84.5004 7.50039C86.0004 6.70039 87.8004 6.30039 90.0004 6.30039C91.1004 6.30039 92.2004 6.40039 93.2004 6.70039C94.2004 6.90039 95.1004 7.20039 95.8004 7.60039H96.2004V2.60039C95.5004 2.20039 94.5004 2.00039 93.4004 1.70039C92.3004 1.50039 91.1004 1.40039 89.7004 1.40039C86.3004 1.40039 83.4004 2.00039 81.0004 3.30039C78.7004 4.60039 76.9004 6.30039 75.7004 8.60039C74.5004 10.9004 73.9004 13.5004 73.9004 16.6004C73.9004 19.7004 74.5004 22.5004 75.7004 24.8004C77.0004 27.1004 78.7004 28.8004 81.0004 30.0004Z" fill="#1F074F"/>
<path d="M103.9 30.2C105.6 31.3 108.2 31.9 111.6 31.9C112.6 31.9 113.7 31.8 114.8 31.7C115.9 31.6 117 31.4 118.1 31.1C119.2 30.8 120.2 30.5 121.1 30.2L121.2 29.9C121.1 29.4 121 28.8 121 27.9C120.9 27.1 120.9 26.2 120.9 25.4C120.9 24.5 120.9 23.8 120.9 23.2V18C120.9 16 120.6 14.4 120.1 13.2C119.6 11.9 118.8 11 117.9 10.3C116.9 9.6 115.8 9.1 114.5 8.9C113.2 8.6 111.8 8.5 110.3 8.5C109.1 8.5 107.8 8.6 106.6 8.8C105.4 9 104.3 9.2 103.3 9.6V14.2H103.7C104.4 13.9 105.2 13.6 106.3 13.4C107.4 13.2 108.5 13 109.6 13C110.9 13 111.9 13.1 112.8 13.4C113.6 13.6 114.3 14.1 114.7 14.8C115.1 15.5 115.4 16.6 115.4 18V18.4C115 18.3 114.6 18.2 114.2 18.1C113.3 17.9 112.3 17.8 111.1 17.8C109.2 17.8 107.5 18.1 106 18.6C104.6 19.1 103.4 19.9 102.6 20.9C101.8 21.9 101.4 23.3 101.4 24.9C101.3 27.3 102.2 29.1 103.9 30.2ZM107.9 22.2C108.8 21.7 110.1 21.5 111.9 21.5C112.7 21.5 113.5 21.6 114.4 21.7C114.7 21.8 115 21.8 115.3 21.9V23.5C115.3 24.2 115.3 24.7 115.3 25.2C115.3 25.6 115.4 26 115.4 26.4C115.4 26.7 115.5 27 115.6 27.3C115.2 27.4 114.8 27.6 114.4 27.7C113.5 27.9 112.6 27.9 111.7 27.9C110.1 27.9 108.9 27.7 108.1 27.2C107.3 26.7 106.8 25.9 106.8 24.8C106.7 23.5 107.1 22.7 107.9 22.2Z" fill="#1F074F"/>
<path d="M137.7 26.9004C137.2 27.0004 136.7 27.1004 136.2 27.2004C135.7 27.2004 135.1 27.2004 134.7 27.2004C133.4 27.2004 132 27.0004 130.7 26.7004C129.4 26.4004 128.2 26.0004 127.3 25.6004H127V30.4004C128 30.7004 129.2 31.0004 130.5 31.2004C131.8 31.4004 133.1 31.5004 134.4 31.5004C138 31.5004 140.6 30.9004 142.4 29.7004C144.2 28.5004 145.1 26.7004 145.1 24.3004C145.1 23.0004 144.8 21.9004 144.2 21.0004C143.6 20.1004 142.7 19.4004 141.7 18.9004C140.7 18.4004 139.5 18.1004 138.2 17.9004L136.3 17.6004C135.1 17.4004 134.1 17.1004 133.5 16.8004C132.9 16.5004 132.6 16.0004 132.6 15.3004C132.6 14.4004 133 13.7004 133.9 13.4004C134.8 13.0004 136 12.8004 137.5 12.8004C138.5 12.8004 139.5 12.9004 140.5 13.0004C141.5 13.2004 142.5 13.5004 143.5 13.9004H143.8V9.20039C142.9 8.90039 141.9 8.70039 140.9 8.60039C139.9 8.40039 138.8 8.40039 137.7 8.40039C135.2 8.40039 133.1 8.70039 131.6 9.40039C130.1 10.0004 128.9 10.9004 128.2 12.0004C127.5 13.1004 127.1 14.3004 127.1 15.6004C127.1 17.5004 127.7 18.9004 128.9 19.8004C130.1 20.7004 131.8 21.4004 133.9 21.8004L135.8 22.1004C137.1 22.3004 138.1 22.6004 138.7 22.9004C139.3 23.2004 139.6 23.7004 139.6 24.5004C139.6 25.1004 139.4 25.6004 139.1 25.9004C138.6 26.5004 138.2 26.8004 137.7 26.9004Z" fill="#1F074F"/>
<path d="M171 31.4002V18.5002C171 16.6002 170.8 15.0002 170.3 13.8002C169.8 12.5002 169.1 11.5002 168.3 10.7002C167.5 9.9002 166.4 9.3002 165.3 9.0002C164.2 8.6002 162.9 8.5002 161.6 8.5002C160.3 8.5002 159.1 8.6002 158.1 8.9002C157.6 9.0002 157.1 9.2002 156.6 9.4002V0.200195H150.6L150.5 0.500195C150.6 1.0002 150.7 1.6002 150.7 2.5002C150.8 3.3002 150.8 4.2002 150.8 5.0002C150.8 5.8002 150.8 6.5002 150.8 7.1002V31.3002H156.5V13.8002H156.6C157.1 13.7002 157.7 13.5002 158.3 13.4002C158.9 13.3002 159.5 13.2002 160.1 13.2002C161.1 13.2002 162 13.4002 162.8 13.7002C163.6 14.0002 164.2 14.6002 164.6 15.4002C165 16.2002 165.3 17.3002 165.3 18.8002V31.4002H171Z" fill="#1F074F"/>
<path d="M188.5 0C186.5 0 184.8 0.3 183.4 1C182 1.7 180.9 2.7 180.2 4C179.5 5.3 179.1 7 179.1 9H175.5V13.6H179.1V31.4H184.8V13.6H190.5V9H184.8C184.8 7.4 185.1 6.3 185.7 5.6C186.3 4.8 187.4 4.5 188.8 4.5C189.4 4.5 189.9 4.6 190.3 4.7C190.7 4.8 191.1 4.9 191.4 5H191.8V0.5C191.4 0.3 190.9 0.2 190.3 0.1C189.9 0 189.2 0 188.5 0Z" fill="#1F074F"/>
<path d="M194.8 15.0002C194.8 15.8002 194.8 16.5002 194.8 17.1002V31.4002H200.5V16.5002C200.5 15.3002 200.4 14.4002 200.3 13.7002C200.6 13.6002 200.9 13.6002 201.3 13.5002C202.1 13.4002 203 13.3002 203.9 13.3002C204.4 13.3002 204.9 13.3002 205.4 13.4002C205.9 13.4002 206.4 13.5002 206.8 13.6002H207.2V8.9002C206.6 8.8002 206.1 8.8002 205.5 8.7002C204.9 8.7002 204.4 8.7002 203.9 8.7002C202.8 8.7002 201.6 8.8002 200.5 8.9002C199.4 9.0002 198.3 9.2002 197.3 9.4002C196.3 9.6002 195.4 9.9002 194.6 10.1002L194.5 10.4002C194.6 10.9002 194.7 11.6002 194.7 12.4002C194.7 13.3002 194.8 14.1002 194.8 15.0002Z" fill="#1F074F"/>
<path d="M227.5 31.4996C228.6 31.2996 229.6 30.9996 230.3 30.6996V26.0996H229.9C229.3 26.3996 228.5 26.6996 227.5 26.9996C226.5 27.1996 225.3 27.3996 224 27.3996C222.5 27.3996 221.2 27.1996 220 26.7996C218.9 26.3996 218 25.6996 217.3 24.7996C216.8 24.0996 216.5 23.1996 216.4 22.0996H231.8V20.6996C231.9 18.2996 231.6 16.2996 230.9 14.4996C230.2 12.6996 229.1 11.1996 227.5 10.1996C225.9 9.19961 223.9 8.59961 221.4 8.59961C219.2 8.59961 217.2 9.09961 215.6 9.99961C214 10.8996 212.7 12.2996 211.8 13.9996C210.9 15.6996 210.4 17.7996 210.4 20.1996C210.4 22.1996 210.7 23.9996 211.3 25.3996C211.9 26.8996 212.8 28.0996 213.9 28.9996C215 29.8996 216.4 30.5996 218 31.0996C219.6 31.5996 221.4 31.7996 223.5 31.7996C225.1 31.7996 226.4 31.6996 227.5 31.4996ZM218.9 13.3996C219.7 12.9996 220.6 12.6996 221.6 12.6996C223.2 12.6996 224.4 13.0996 225.1 13.9996C225.9 14.8996 226.3 16.0996 226.3 17.7996V17.9996H216.5C216.6 16.9996 216.8 16.0996 217.1 15.3996C217.5 14.4996 218.1 13.7996 218.9 13.3996Z" fill="#1F074F"/>
<path d="M257.1 14.3004C256.4 12.5004 255.3 11.0004 253.7 10.0004C252.1 9.00039 250.1 8.40039 247.6 8.40039C245.4 8.40039 243.4 8.90039 241.8 9.80039C240.2 10.7004 238.9 12.1004 238 13.8004C237.1 15.5004 236.6 17.6004 236.6 20.0004C236.6 22.0004 236.9 23.8004 237.5 25.2004C238.1 26.7004 239 27.9004 240.1 28.8004C241.2 29.7004 242.6 30.4004 244.2 30.9004C245.8 31.4004 247.6 31.6004 249.7 31.6004C251.2 31.6004 252.5 31.5004 253.6 31.3004C254.7 31.1004 255.7 30.8004 256.4 30.5004V25.9004H256C255.4 26.2004 254.6 26.5004 253.6 26.8004C252.6 27.0004 251.4 27.2004 250.1 27.2004C248.6 27.2004 247.3 27.0004 246.1 26.6004C245 26.2004 244.1 25.5004 243.4 24.6004C242.9 23.9004 242.6 23.0004 242.5 21.9004H257.9V20.5004C258.1 18.2004 257.8 16.1004 257.1 14.3004ZM252.4 18.1004H242.6C242.7 17.1004 242.9 16.2004 243.2 15.5004C243.7 14.5004 244.3 13.8004 245 13.4004C245.8 13.0004 246.7 12.7004 247.7 12.7004C249.3 12.7004 250.5 13.1004 251.2 14.0004C252 14.9004 252.4 16.1004 252.4 17.8004V18.1004Z" fill="#1F074F"/>
<path d="M25.3 0.399805C19.4 0.399805 14.5 5.1998 14.5 11.0998H54.4C60.3 11.0998 65.2 6.2998 65.2 0.299805L25.3 0.399805Z" fill="#04AB61"/>
<path d="M14.5 11.0998C14.5 5.1998 19.3 0.299805 25.3 0.299805V40.1998C25.3 46.0998 20.5 50.9998 14.5 50.9998V11.0998Z" fill="#04AB61"/>
<path fill-rule="evenodd" clip-rule="evenodd" d="M28.7002 14.7002V25.5002H41.2002C47.1002 25.5002 52.0002 20.7002 52.0002 14.7002H28.7002Z" fill="#FBB016"/>
<path d="M0 25.5002C0 19.6002 4.8 14.7002 10.8 14.7002V54.6002C10.8 60.5002 6 65.4002 0 65.4002V25.5002Z" fill="#FBB016"/>
</g>
<defs>
<clipPath id="clip0_4166_1216">
<rect width="258" height="75.2" fill="white"/>
</clipPath>
</defs>
</svg>
